<?xml version="1.0" encoding="UTF-8" standalone="no"?>
<svg
   xmlns:x="adobe:ns:meta/"
   xmlns:dc="http://purl.org/dc/elements/1.1/"
   xmlns:cc="http://creativecommons.org/ns#"
   xmlns:rdf="http://www.w3.org/1999/02/22-rdf-syntax-ns#"
   xmlns:svg="http://www.w3.org/2000/svg"
   xmlns="http://www.w3.org/2000/svg"
   xmlns:sodipodi="http://sodipodi.sourceforge.net/DTD/sodipodi-0.dtd"
   xmlns:inkscape="http://www.inkscape.org/namespaces/inkscape"
   width="1000"
   height="500"
   viewBox="0 0 1000 500"
   version="1.1"
   id="svg70"
   sodipodi:docname="launchschoollogo.svg"
   inkscape:version="1.0.2 (394de47547, 2021-03-26)">
  <sodipodi:namedview
     pagecolor="#ffffff"
     bordercolor="#666666"
     borderopacity="1"
     objecttolerance="10"
     gridtolerance="10"
     guidetolerance="10"
     inkscape:pageopacity="0"
     inkscape:pageshadow="2"
     inkscape:window-width="2560"
     inkscape:window-height="1377"
     id="namedview72"
     showgrid="true"
     inkscape:zoom="1.0729879"
     inkscape:cx="554.90115"
     inkscape:cy="422.86321"
     inkscape:window-x="1920"
     inkscape:window-y="30"
     inkscape:window-maximized="1"
     inkscape:current-layer="svg70"
     inkscape:document-rotation="0">
    <inkscape:grid
       type="xygrid"
       id="grid74" />
  </sodipodi:namedview>
  <metadata
     id="metadata60">
<?xpacket begin="﻿" id="W5M0MpCehiHzreSzNTczkc9d"?>    <x:xmpmeta
       x:xmptk="Adobe XMP Core 5.6-c140 79.160451, 2017/05/06-01:08:21        ">
      <metadata>
        <rdf:RDF>
          <rdf:Description
             rdf:about="" />
          <cc:Work
             rdf:about="">
            <dc:format>image/svg+xml</dc:format>
            <dc:type
               rdf:resource="http://purl.org/dc/dcmitype/StillImage" />
            <dc:title></dc:title>
          </cc:Work>
        </rdf:RDF>
      </metadata>
    </x:xmpmeta>
<?xpacket end="w"?>  </metadata>
  <defs
     id="defs64">
    <style
       id="style62">
      .cls-1 {
        fill: #848484;
      }

      .cls-1, .cls-2, .cls-3 {
        fill-rule: evenodd;
      }

      .cls-2 {
        fill: #5f5f5f;
      }

      .cls-3 {
        fill: #f25858;
      }
    </style>
  </defs>
  <g
     id="g22"
     transform="translate(-0.2026085,6.8272111)">
    <path
       id="A_School_for_Software_Engineers"
       data-name="A School for Software Engineers"
       class="cls-1"
       d="m 63.192999,449.521 -18.108,-46.232 h -4.5 l -18.2,46.232 h 5.417 l 5.662,-14.643 h 18.455 l 5.732,14.644 h 5.542 z m -27.84,-19.463 5.417,-14.266 a 59.668,59.668 0 0 0 1.984,-6.646 q 1.1,3.938 2.142,6.646 l 5.354,14.266 h -14.9 z M 109.536,429.586 q -2.724,-2.961 -9.968001,-5.543 a 36.93,36.93 0 0 1 -6.408,-2.819 8.292,8.292 0 0 1 -2.977,-2.8 7.769,7.769 0 0 1 -0.881,-3.921 6.018,6.018 0 0 1 2.393,-5.07 10.726,10.726 0 0 1 6.645,-1.827 A 28.537,28.537 0 0 1 109.426,410 l 1.669,-4.661 a 31.18,31.18 0 0 0 -12.629001,-2.52 q -6.582,0 -10.582,3.15 a 10.222,10.222 0 0 0 -4,8.471 12.027,12.027 0 0 0 2.755,8.22 q 2.755,3.15 9.181,5.449 a 45.015,45.015 0 0 1 6.850001,2.928 8.952,8.952 0 0 1 3.212,2.819 7.263,7.263 0 0 1 0.96,3.921 6.664,6.664 0 0 1 -2.708,5.653 q -2.709,2.031 -8.062001,2.031 a 32.465,32.465 0 0 1 -6.614,-0.692 33.162,33.162 0 0 1 -6.173,-1.89 v 5.165 q 4.41,2.111 12.6,2.11 7.558001,0 11.967001,-3.4 a 11.294,11.294 0 0 0 4.409,-9.48 10.9,10.9 0 0 0 -2.725,-7.688 z m 33.871,18.77 v -4.63 a 23.246,23.246 0 0 1 -8.849,1.858 q -5.04,0 -7.606,-3.4 -2.566,-3.4 -2.567,-9.763 0,-13.416 10.519,-13.416 a 16.843,16.843 0 0 1 3.622,0.457 24.519,24.519 0 0 1 3.779,1.149 l 1.606,-4.441 a 16.436,16.436 0 0 0 -3.9,-1.259 23.588,23.588 0 0 0 -4.976,-0.536 q -7.716,0 -11.889,4.724 -4.173,4.724 -4.173,13.385 0,8.441 4.11,13.054 4.11,4.613 11.606,4.614 a 18.854,18.854 0 0 0 8.723,-1.8 v 0 z m 37.037,1.165 v -22.518 q 0,-6.551 -3.165,-9.558 -3.165,-3.007 -9.5,-3.008 a 14.286,14.286 0 0 0 -6.5,1.433 10.667,10.667 0 0 0 -4.393,3.921 h -0.312 a 32.3,32.3 0 0 0 0.252,-4.44 v -14.834 h -5.228 v 49 h 5.228 v -18.039 q 0,-6.738 2.5,-9.7 2.5,-2.962 7.953,-2.96 4.094,0 6.015,2.079 1.921,2.079 1.921,6.3 v 22.329 h 5.228 z m 36.265,-30.328 q -4.269,-4.818 -11.511,-4.819 -7.5,0 -11.716,4.709 -4.216,4.709 -4.22,13.148 a 21.724,21.724 0 0 0 1.953,9.511 14.338,14.338 0 0 0 5.542,6.236 15.559,15.559 0 0 0 8.22,2.173 q 7.5,0 11.747,-4.74 4.247,-4.74 4.252,-13.18 -0.002,-8.22 -4.267,-13.038 z m -19.416,2.992 q 2.613,-3.37 7.747,-3.37 5.2,0 7.858,3.417 2.658,3.417 2.661,10 0,6.645 -2.661,10.094 -2.661,3.449 -7.8,3.448 -5.133,0 -7.779,-3.464 -2.646,-3.464 -2.645,-10.078 0.005,-6.677 2.619,-10.047 z m 58.373,-2.992 q -4.267,-4.818 -11.511,-4.819 -7.5,0 -11.715,4.709 -4.215,4.709 -4.221,13.148 a 21.724,21.724 0 0 0 1.953,9.511 14.34,14.34 0 0 0 5.543,6.236 15.554,15.554 0 0 0 8.22,2.173 q 7.494,0 11.747,-4.74 4.253,-4.74 4.251,-13.18 0,-8.22 -4.267,-13.038 z m -19.416,2.992 q 2.615,-3.37 7.748,-3.37 5.2,0 7.857,3.417 2.657,3.417 2.662,10 0,6.645 -2.662,10.094 -2.662,3.449 -7.794,3.448 -5.135,0 -7.779,-3.464 -2.644,-3.464 -2.646,-10.078 0,-6.677 2.614,-10.047 z m 38.076,-21.668 h -5.228 v 49 h 5.228 z m 43.4,14.487 h -8.787 v -2.236 q 0,-4.345 1.418,-6.314 a 5.03,5.03 0 0 1 4.377,-1.969 17.3,17.3 0 0 1 5.165,0.977 l 1.354,-4.189 a 22.867,22.867 0 0 0 -6.424,-1.1 q -11.118,0 -11.118,12.723 v 1.921 l -6.172,1.89 v 2.362 h 6.172 v 30.454 h 5.228 v -30.456 h 8.787 z m 31.824,4.189 q -4.268,-4.818 -11.511,-4.819 -7.5,0 -11.715,4.709 -4.215,4.709 -4.22,13.148 a 21.724,21.724 0 0 0 1.952,9.511 14.346,14.346 0 0 0 5.541,6.236 15.556,15.556 0 0 0 8.22,2.173 q 7.494,0 11.747,-4.74 4.253,-4.74 4.252,-13.18 0,-8.22 -4.268,-13.038 z m -19.416,2.992 q 2.614,-3.37 7.748,-3.37 5.2,0 7.857,3.417 2.657,3.417 2.662,10 0,6.645 -2.662,10.094 -2.662,3.449 -7.794,3.448 -5.135,0 -7.779,-3.464 -2.644,-3.464 -2.646,-10.078 -0.002,-6.677 2.612,-10.047 z m 42.643,-5.984 a 15.169,15.169 0 0 0 -4.63,5.2 h -0.252 l -0.6,-6.393 h -4.315 v 34.517 h 5.228 v -18.522 a 12.4,12.4 0 0 1 2.976,-8.472 9.2,9.2 0 0 1 7.165,-3.4 17.807,17.807 0 0 1 3.779,0.472 l 0.725,-4.85 a 20.463,20.463 0 0 0 -4.126,-0.378 10.424,10.424 0 0 0 -5.953,1.826 z m 57.334,13.385 q -2.726,-2.961 -9.968,-5.543 a 36.911,36.911 0 0 1 -6.409,-2.819 8.279,8.279 0 0 1 -2.976,-2.8 7.768,7.768 0 0 1 -0.882,-3.921 6.021,6.021 0 0 1 2.393,-5.07 10.729,10.729 0 0 1 6.646,-1.827 A 28.532,28.532 0 0 1 430,410 l 1.669,-4.661 a 31.179,31.179 0 0 0 -12.628,-2.52 q -6.583,0 -10.582,3.15 a 10.22,10.22 0 0 0 -4,8.471 12.023,12.023 0 0 0 2.756,8.22 q 2.755,3.15 9.18,5.449 a 44.97,44.97 0 0 1 6.85,2.928 8.935,8.935 0 0 1 3.212,2.819 7.254,7.254 0 0 1 0.961,3.921 6.665,6.665 0 0 1 -2.709,5.653 q -2.709,2.031 -8.062,2.031 a 32.472,32.472 0 0 1 -6.614,-0.692 33.152,33.152 0 0 1 -6.172,-1.89 v 5.165 q 4.408,2.111 12.6,2.11 7.558,0 11.968,-3.4 a 11.3,11.3 0 0 0 4.409,-9.48 10.905,10.905 0 0 0 -2.729,-7.688 z m 36.878,-10.393 q -4.268,-4.818 -11.51,-4.819 -7.5,0 -11.716,4.709 -4.216,4.709 -4.22,13.148 a 21.724,21.724 0 0 0 1.952,9.511 14.346,14.346 0 0 0 5.541,6.236 15.559,15.559 0 0 0 8.22,2.173 q 7.5,0 11.747,-4.74 4.247,-4.74 4.252,-13.18 0,-8.22 -4.268,-13.038 z m -19.415,2.992 q 2.613,-3.37 7.747,-3.37 5.2,0 7.858,3.417 2.658,3.417 2.661,10 0,6.645 -2.661,10.094 -2.661,3.449 -7.795,3.448 -5.133,0 -7.779,-3.464 -2.646,-3.464 -2.645,-10.078 -0.002,-6.677 2.614,-10.047 z m 48.4,-7.181 h -8.786 v -2.236 q 0,-4.345 1.417,-6.314 a 5.032,5.032 0 0 1 4.377,-1.969 17.29,17.29 0 0 1 5.165,0.977 l 1.354,-4.189 a 22.867,22.867 0 0 0 -6.424,-1.1 q -11.118,0 -11.117,12.723 v 1.921 l -6.173,1.89 v 2.362 h 6.173 v 30.454 h 5.228 v -30.456 h 8.786 z m 13.385,29.163 a 6.985,6.985 0 0 1 -1.48,-4.787 v -20.313 h 10.015 v -4.063 h -10.012 v -8 h -3.024 l -2.2,7.369 -4.945,2.173 v 2.52 h 4.945 V 439.6 q 0,10.551 10.015,10.55 a 18.854,18.854 0 0 0 2.976,-0.268 9.544,9.544 0 0 0 2.5,-0.677 v -4 a 18.506,18.506 0 0 1 -4.724,0.63 5.151,5.151 0 0 1 -4.063,-1.668 z m 50.075,5.354 9.542,-34.517 h -5.417 q -6.015,23.053 -6.566,25.415 a 32.973,32.973 0 0 0 -0.677,3.5 h -0.252 a 66.853,66.853 0 0 0 -2.394,-9.1 l -6.172,-19.81 h -5.669 l -6.33,19.81 q -0.567,1.669 -1.339,4.519 -0.772,2.85 -1.115,4.64 h -0.252 a 80.14,80.14 0 0 0 -2,-9.164 q -1.747,-6.8 -5.086,-19.81 h -5.48 l 9.417,34.517 h 6.047 l 6.519,-20.187 q 0.945,-2.993 2.2,-8.5 h 0.252 q 1.638,6.582 2.236,8.44 l 6.33,20.25 h 6.205 z m 40.878,0 v -23.557 q 0,-6.046 -2.976,-8.787 -2.976,-2.741 -9.149,-2.74 a 24.2,24.2 0 0 0 -6.094,0.788 24.57,24.57 0 0 0 -5.59,2.173 l 1.606,4 a 22.786,22.786 0 0 1 9.765,-2.646 q 3.843,0 5.59,1.937 1.747,1.937 1.748,6 v 2.142 l -5.858,0.189 q -16.722,0.5 -16.723,10.96 0,4.881 2.914,7.527 2.914,2.646 8.046,2.645 a 15.685,15.685 0 0 0 6.409,-1.15 14.519,14.519 0 0 0 5.149,-4.393 h 0.252 l 1.04,4.913 h 3.873 z m -20.486,-5.165 a 5.382,5.382 0 0 1 -1.717,-4.314 5.842,5.842 0 0 1 2.756,-5.339 q 2.755,-1.716 8.991,-1.936 l 5.228,-0.221 v 3.118 a 9.9,9.9 0 0 1 -2.787,7.5 10.609,10.609 0 0 1 -7.669,2.677 7.122,7.122 0 0 1 -4.799,-1.485 z m 41.051,-28.155 a 15.176,15.176 0 0 0 -4.629,5.2 h -0.252 l -0.6,-6.393 h -4.315 v 34.517 h 5.228 v -18.522 a 12.4,12.4 0 0 1 2.976,-8.472 9.2,9.2 0 0 1 7.165,-3.4 17.807,17.807 0 0 1 3.779,0.472 l 0.724,-4.85 a 20.452,20.452 0 0 0 -4.125,-0.378 10.43,10.43 0 0 0 -5.948,1.826 z m 37.084,33.43 a 27.636,27.636 0 0 0 5.244,-1.716 v -4.661 a 27.8,27.8 0 0 1 -11.023,2.33 q -5.291,0 -8.2,-3.149 -2.909,-3.149 -3.071,-9.228 h 23.778 v -3.306 q 0,-6.992 -3.779,-11.259 a 13.018,13.018 0 0 0 -10.267,-4.268 13.654,13.654 0 0 0 -11.039,4.913 q -4.11,4.914 -4.11,13.259 0,8.283 4.425,12.944 4.425,4.661 12.078,4.661 a 29.42,29.42 0 0 0 5.967,-0.52 z m -1.087,-28.253 q 2.2,2.63 2.2,7.574 h -18.038 a 12.489,12.489 0 0 1 2.913,-7.5 8.539,8.539 0 0 1 6.63,-2.708 7.762,7.762 0 0 1 6.295,2.634 z m 59.932,23.352 h -20.31 v -16.939 h 19.085 v -4.724 h -19.085 v -14.834 h 20.314 v -4.755 h -25.668 v 46.043 h 25.668 v -4.787 z m 38.264,4.787 v -22.514 q 0,-6.613 -3.149,-9.621 -3.149,-3.008 -9.385,-3.008 a 14.633,14.633 0 0 0 -6.456,1.4 10.676,10.676 0 0 0 -4.5,3.952 h -0.252 l -0.85,-4.724 h -4.252 v 34.517 h 5.228 v -18.107 q 0,-6.738 2.52,-9.668 2.52,-2.93 7.936,-2.929 4.094,0 6.015,2.079 1.921,2.079 1.921,6.3 v 22.329 h 5.228 z M 782.123,415 a 17.517,17.517 0 0 0 -4.881,-0.63 q -6.235,0 -9.637,3.071 -3.402,3.071 -3.4,8.739 a 11.013,11.013 0 0 0 1.685,6.047 9.32,9.32 0 0 0 4.364,3.751 10.594,10.594 0 0 0 -3.181,2.74 5.558,5.558 0 0 0 -1.007,3.307 4.92,4.92 0 0 0 0.9,2.929 5.47,5.47 0 0 0 2.22,1.858 10.259,10.259 0 0 0 -5.668,3.118 7.99,7.99 0 0 0 -2.016,5.448 8.135,8.135 0 0 0 3.669,7.117 q 3.669,2.52 10.44,2.52 8.818,0 13.416,-3.008 a 9.8,9.8 0 0 0 4.6,-8.739 8.21,8.21 0 0 0 -3.007,-6.866 q -3.009,-2.361 -8.614,-2.362 h -6.11 a 8.5,8.5 0 0 1 -4,-0.677 2.254,2.254 0 0 1 -1.165,-2.094 q 0,-2.677 3.338,-4.441 a 15.735,15.735 0 0 0 2.9,0.252 q 6.047,0 9.511,-3.023 a 10.2,10.2 0 0 0 3.465,-8.094 11.228,11.228 0 0 0 -2.268,-6.9 l 6.393,-0.756 V 415 h -11.943 z m -13.605,35.43 a 8.259,8.259 0 0 1 5.543,-1.7 h 6.267 q 4.787,0 6.519,1.086 1.732,1.086 1.732,3.89 a 6.028,6.028 0 0 1 -3.165,5.338 q -3.165,1.968 -9.747,1.968 a 13.044,13.044 0 0 1 -6.771,-1.448 4.686,4.686 0 0 1 -2.362,-4.252 6.077,6.077 0 0 1 1.988,-4.878 z m 2.834,-30.265 a 7.671,7.671 0 0 1 5.669,-1.984 q 7.748,0 7.748,7.779 0,7.433 -7.653,7.432 a 8.174,8.174 0 0 1 -5.7,-1.858 7.025,7.025 0 0 1 -2.047,-5.48 q 0.005,-3.9 1.987,-5.885 z M 806.37,415 h -5.22 v 34.517 h 5.22 v -34.513 z m -4.78,-6.724 a 3,3 0 0 0 2.2,0.866 3.042,3.042 0 0 0 2.17,-0.866 3.458,3.458 0 0 0 0.92,-2.629 3.407,3.407 0 0 0 -0.92,-2.614 3.253,3.253 0 0 0 -4.37,-0.016 3.466,3.466 0 0 0 -0.89,2.63 3.528,3.528 0 0 0 0.894,2.631 z m 44.72,41.241 v -22.514 q 0,-6.613 -3.15,-9.621 -3.15,-3.008 -9.39,-3.008 a 14.613,14.613 0 0 0 -6.45,1.4 10.639,10.639 0 0 0 -4.51,3.952 h -0.25 l -0.85,-4.724 h -4.25 v 34.517 h 5.23 v -18.107 q 0,-6.738 2.52,-9.668 2.52,-2.93 7.93,-2.929 4.1,0 6.02,2.079 1.92,2.079 1.92,6.3 v 22.329 h 5.23 z m 31.29,0.11 a 27.835,27.835 0 0 0 5.24,-1.716 v -4.661 a 27.8,27.8 0 0 1 -11.02,2.33 q -5.295,0 -8.21,-3.149 -2.915,-3.149 -3.07,-9.228 h 23.78 v -3.306 q 0,-6.992 -3.78,-11.259 a 13.018,13.018 0 0 0 -10.27,-4.268 13.621,13.621 0 0 0 -11.03,4.913 q -4.11,4.914 -4.11,13.259 0,8.283 4.42,12.944 4.42,4.661 12.08,4.661 a 29.461,29.461 0 0 0 5.974,-0.516 z m -1.09,-28.249 q 2.2,2.63 2.2,7.574 h -18.036 a 12.451,12.451 0 0 1 2.91,-7.5 8.545,8.545 0 0 1 6.63,-2.708 7.762,7.762 0 0 1 6.3,2.634 z m 37.26996,28.249 a 27.685,27.685 0 0 0 5.25,-1.716 v -4.661 a 27.844,27.844 0 0 1 -11.03,2.33 c -3.52,0 -6.26,-1.049 -8.2,-3.149 -1.94,-2.1 -2.97,-5.175 -3.07,-9.228 h 23.78 v -3.306 q 0,-6.992 -3.78,-11.259 a 13.032,13.032 0 0 0 -10.27,-4.268 13.655,13.655 0 0 0 -11.04,4.913 q -4.11,4.914 -4.11,13.259 0,8.283 4.43,12.944 4.43,4.661 12.07,4.661 a 29.461,29.461 0 0 0 5.974,-0.516 z m -1.08,-28.249 c 1.46,1.753 2.2,4.278 2.2,7.574 h -18.05 a 12.518,12.518 0 0 1 2.92,-7.5 8.545,8.545 0 0 1 6.63,-2.708 7.762,7.762 0 0 1 6.304,2.634 z M 939.21,416.197 a 15.23,15.23 0 0 0 -4.63,5.2 h -0.25 l -0.6,-6.393 h -4.31 v 34.517 h 5.23 v -18.518 a 12.42,12.42 0 0 1 2.97,-8.472 9.209,9.209 0 0 1 7.17,-3.4 17.839,17.839 0 0 1 3.78,0.472 l 0.72,-4.85 a 20.429,20.429 0 0 0 -4.12,-0.378 10.445,10.445 0 0 0 -5.956,1.826 z m 36.65,18.2 q -2.16,-2.267 -8.3,-4.5 a 51.288,51.288 0 0 1 -6.05,-2.551 6.948,6.948 0 0 1 -2.28,-1.858 3.863,3.863 0 0 1 -0.71,-2.362 3.6,3.6 0 0 1 1.89,-3.213 10.838,10.838 0 0 1 5.6,-1.165 24.98,24.98 0 0 1 9.42,2.142 l 1.86,-4.252 a 27.556,27.556 0 0 0 -10.9,-2.268 q -5.985,0 -9.41,2.441 a 7.748,7.748 0 0 0 -3.44,6.661 7.94,7.94 0 0 0 0.99,4.063 9.414,9.414 0 0 0 3.03,3.039 36.893,36.893 0 0 0 6.85,3.133 27.627,27.627 0 0 1 6.82,3.386 4.508,4.508 0 0 1 -0.46,7.432 12.46,12.46 0 0 1 -6.3,1.307 22.341,22.341 0 0 1 -5.5,-0.724 25.849,25.849 0 0 1 -5.33,-1.984 v 4.854 q 3.84,2.174 10.7,2.173 6.495,0 10.08,-2.614 a 8.629,8.629 0 0 0 3.59,-7.432 7.973,7.973 0 0 0 -2.146,-5.701 z" />
    <path
       class="cls-2"
       d="m 530.37561,332.337 c 8.574,1.424 16.97,4.05 25.645,4.85 6.79,0.63 15.807,0.877 20.4,-5.319 7.534,-10.169 -0.09,-18.824 -9.143,-23.526 -9.029,-4.684 -18.928,-7.707 -26.9,-14.341 -8.371,-6.98 -11.378,-18.383 -9.192,-29.1 4,-19.6 22.3,-22.691 39.189,-21.388 8.745,0.671 17.4,2.3 26.125,3.172 -2.779,7.213 -4.535,11.787 -6.051,15.712 -0.252,0.652 -13.718,-2.913 -15.035,-3.155 -8.53,-1.57 -18.745,-1.451 -24.527,6.221 -5.645,7.5 -0.077,15.541 6.785,19.3 12.707,6.963 33.586,10.714 38.076,26.884 2.763,9.949 1.626,21.876 -5.421,29.694 -6.948,7.715 -18.525,10.383 -28.473,10.787 a 128.143,128.143 0 0 1 -17.111,-0.559 c -15.462,-1.459 -16.697,-3.594 -14.367,-19.232 z m -184.83,18.87 h -16.7 c 0,-14.747 0,-29.478 -0.33,-44.226 -0.225,-10.231 0.015,-21.414 -12.121,-23.829 -6.613,-1.315 -14.361,0.895 -18.334,6.541 -4.156,5.9 -4.5,13.441 -4.858,20.42 -0.428,8.319 -0.49,16.631 -0.428,24.958 0.041,5.349 0.128,10.692 0.128,16.036 h -16.622 c -0.256,-3.046 -0.677,-5.748 -0.677,-8.434 -0.051,-23.826 -0.028,-47.648 -0.028,-74.739 7.326,3.211 12.59,5.516 19.029,8.338 2.932,-1.435 8.121,-4.909 13.816,-6.6 4.115,-1.22 9.462,-1.229 13.725,-1.093 a 24.741,24.741 0 0 1 11.78,3 c 8.131,4.738 10.909,14.562 11.869,23.439 0.893,8.223 0.494,16.6 0.472,24.865 -0.024,8.7 -0.116,17.394 -0.132,26.091 -0.002,1.35 -0.293,2.695 -0.589,5.233 z m -156.97,-80.367 h 16.7 c 0,15.523 -0.051,30.684 0.014,45.835 0.077,14.916 5.236,22.167 15.594,22.145 11.877,-0.02 19.511,-8.635 19.752,-22.943 0.24,-14.812 0.05,-29.629 0.05,-44.928 h 17.344 v 80.152 c -4.165,0.2 -8.086,0.394 -12.336,0.605 -1.244,-3.078 -2.377,-5.872 -3.855,-9.521 -8.645,9.01 -19.129,11.153 -30.672,9.979 -13.846,-1.419 -21.428,-7.009 -22.282,-20.926 -1.22,-19.911 -0.309,-39.957 -0.309,-60.398 z M 21.809607,244.091 h 15.933 v 91.485 h 44.233002 v 15.508 H 21.809607 Z m 652.531003,30.066 c -1.93,4.769 -3.568,8.835 -5.311,13.149 -12.386,-3.877 -24.564,-8.736 -33.756,4.583 -8.83,12.824 -7.127,43.71 11.927,45.514 7.757,0.735 16.018,-1.663 23.438,-3.672 3.324,15.077 1.833,17.217 -13.4,18.329 -9.029,0.658 -20.122,0.815 -28.216,-3.908 -17.437,-10.174 -19.587,-41.205 -12.687,-58 5.677,-13.819 18.5,-22.649 33.309,-22.091 7.841,0.299 17.682,2.415 24.696,6.096 z m -249.664,0 c -1.926,4.769 -3.568,8.835 -5.306,13.149 -12.387,-3.877 -24.569,-8.736 -33.759,4.583 -8.83,12.824 -7.127,43.71 11.929,45.514 7.753,0.735 16.018,-1.663 23.438,-3.672 3.325,15.077 1.829,17.217 -13.4,18.329 -9.029,0.658 -20.123,0.815 -28.22,-3.908 -17.436,-10.174 -19.586,-41.205 -12.686,-58 5.676,-13.818 18.503,-22.649 33.303,-22.09 7.846,0.298 17.687,2.414 24.7,6.095 z m 406.279,-3.427 c -28.98,-9.818 -51.8,7.317 -51.832,38.907 -0.017,20.035 8.094,38.789 29.342,42.179 16.77,2.681 35.46,-2.493 42.16,-19.77 1.97,-5.108 3.76,-11.488 3.99,-17 0.77,-17.852 -5.27,-38.087 -23.66,-44.316 z m -10.51,66.729 c -12.57,1.353 -20.72,-6.938 -23.29,-18.6 -1.89,-8.555 -1.4,-19.025 3.13,-26.687 5.24,-8.88 17.99,-12.416 26.81,-6.254 6.72,4.693 9.45,13.145 9.99,21.076 0.8,12.116 -2.13,28.899 -16.64,30.465 z m 102.06,-66.729 c -28.99,-9.818 -51.81,7.317 -51.84,38.907 -0.02,20.035 8.1,38.789 29.34,42.179 16.77,2.681 35.46,-2.493 42.15999,-19.77 a 57.255,57.255 0 0 0 4,-17 c 0.76,-17.852 -5.27999,-38.087 -23.65999,-44.316 z m -10.52,66.729 c -12.57,1.353 -20.71,-6.938 -23.29,-18.6 -1.88,-8.555 -1.39,-19.025 3.13,-26.687 5.24,-8.88 17.99,-12.416 26.81,-6.254 6.72,4.693 9.46,13.145 9.99,21.076 0.81,12.116 -2.12,28.899 -16.64,30.465 z m -743.41,-47.367 a 22.085,22.085 0 0 0 -2.982,-10.582 c -3.747,-5.862 -11.435,-9.368 -17.943,-10.361 a 61.834,61.834 0 0 0 -24.675,1.19 c -1.2,0.32 -13.871,4.922 -13.655,5.393 1.963,4.271 3.645,7.936 5.25,11.45 32.484,-7.179 38.372,-4.971 36.805,14.67 0.023,-0.4 -15.787,0.439 -17.414,0.593 -8.174,0.77 -17.142,2.057 -24.139,6.74 -5.937,3.969 -9.1,12.416 -8.942,19.3 0.162,7.2 2.5,15.255 8.748,19.351 9.92,6.505 25.638,6.571 35.581,0.109 0.937,-0.606 8.216,-5.98 7.818,-6.924 1.947,4.62 3.237,7.659 4.531,10.726 4.056,-0.239 7.3,-0.434 11.1,-0.663 0,-18.309 -0.057,-36.624 0.045,-54.926 0.002,-1.98 0.007,-4.027 -0.128,-6.066 z m -37.63,48.816 c -4.638,-0.718 -9.628,-4.19 -10.752,-8.967 -2.676,-11.417 11.071,-15.053 19.288,-16.52 1.188,-0.21 12.324,-1.76 12.32,-1.967 0.433,19.286 -7.934,29.45 -20.856,27.454 z m 630.79,13.156 h -16.783 v -49.117 q 0,-9.242 -3.665,-13.795 -3.665,-4.553 -11.626,-4.552 -10.527,0 -15.466,6.395 -4.939,6.395 -4.945,21.411 v 39.657 h -16.709 V 239.672 h 16.709 v 28.532 a 135.464,135.464 0 0 1 -0.853,14.666 h 1.068 a 23.372,23.372 0 0 1 9.492,-8.958 30.224,30.224 0 0 1 14.187,-3.177 q 28.587,0 28.591,29.252 v 52.079 z m -250.855,0 h -16.782 v -49.117 q 0,-9.242 -3.666,-13.795 -3.666,-4.553 -11.626,-4.552 -10.525,0 -15.465,6.395 -4.94,6.395 -4.946,21.412 v 39.657 h -16.709 V 239.672 h 16.709 v 28.532 a 135.21,135.21 0 0 1 -0.853,14.666 h 1.069 a 23.372,23.372 0 0 1 9.492,-8.958 30.22,30.22 0 0 1 14.186,-3.177 q 28.587,0 28.591,29.252 v 52.079 z m 452.415,-112.688 h 15.3 v 112.983 h -15.3 z"
       id="path67" />
    <path
       id="Shape_7_copy"
       data-name="Shape 7 copy"
       class="cls-3"
       d="m 590.19136,25.026 a 11.943,11.943 0 0 0 -17.081,0 l -115.628,117.325 a 12.386,12.386 0 0 0 0,17.337 11.942,11.942 0 0 0 17.079,0 L 590.20536,42.36 a 12.387,12.387 0 0 0 -0.014,-17.334 z m -17.16,138.764 -26.245,26.628 a 12.4,12.4 0 0 0 0,17.336 11.946,11.946 0 0 0 17.081,0 l 26.247,-26.63 a 12.391,12.391 0 0 0 0,-17.346 11.968,11.968 0 0 0 -17.083,0.012 z m 17.26,-69.522 a 11.948,11.948 0 0 0 -17.081,0 l -49.2,49.928 a 12.367,12.367 0 0 0 0,17.325 11.945,11.945 0 0 0 17.085,0 l 49.2,-49.917 a 12.386,12.386 0 0 0 -0.004,-17.336 z m -136.839,-69.159 a 11.953,11.953 0 0 0 -17.081,0 l -26.255,26.623 a 12.376,12.376 0 0 0 0,17.337 11.94,11.94 0 0 0 17.076,0 l 26.26,-26.636 a 12.38,12.38 0 0 0 0,-17.324 z m 19.3,67.076 49.2,-49.936 a 12.362,12.362 0 0 0 0,-17.328 11.954,11.954 0 0 0 -17.082,0 l -49.196,49.934 a 12.365,12.365 0 0 0 0,17.331 11.949,11.949 0 0 0 17.078,-0.001 z" />
  </g>
</svg>
